<?xml version="1.0" encoding="UTF-8" standalone="no"?>
<svg
   version="1.1"
   id="svg1"
   width="1078"
   height="1078"
   viewBox="0 0 1078 1078"
   sodipodi:docname="attendance.svg"
   xmlns:sodipodi="http://sodipodi.sourceforge.net/DTD/sodipodi-0.dtd"
   xmlns:xlink="http://www.w3.org/1999/xlink"
   xmlns="http://www.w3.org/2000/svg"
   xmlns:svg="http://www.w3.org/2000/svg">
    <path
       d="M 504.05613,1043.8996 C 377.55563,1037.3367 259.79654,985.13019 168.60134,895.18137 109.98309,837.36426 65.806223,765.57893 40.640027,687.25026 31.932865,660.1496 24.226111,625.62379 20.494621,597 c -2.285809,-17.53415 -4.354169,-45.33372 -3.448692,-46.35175 0.416669,-0.46847 1.037838,3.13153 1.380375,8 C 22.711203,619.54937 34.795937,672.59213 56.326228,725 94.927161,818.9603 162.3988,901.29459 246,956.4551 c 21.08375,13.91117 35.35639,22.21288 55.70616,32.4016 105.06134,52.6021 228.34405,67.3576 342.66243,41.0127 7.07773,-1.631 13.10463,-2.7295 13.39313,-2.441 0.71757,0.7176 -0.66077,1.1456 -12.78619,3.9709 -47.76022,11.1283 -91.89799,15.0435 -140.9194,12.5003 z M 386.88127,955.20663 c -3.34242,-1.7461 -6.47826,-4.40423 -8.36419,-7.09002 -2.68914,-3.82964 -3.01283,-5.07492 -2.97797,-11.45664 0.0454,-8.3036 2.2625,-13.52257 7.81621,-18.39879 7.09457,-6.22912 18.02509,-6.9003 27.59046,-1.69417 6.50747,3.5418 6.9626,4.20528 5.78488,8.43299 l -0.97499,3.5 -1.75528,-4.05798 c -3.34324,-7.72916 -10.2122,-11.33469 -19.31373,-10.13781 -3.25729,0.42835 -4.97896,1.43794 -7.75587,4.54806 -4.26173,4.77311 -5.9385,9.814 -5.90883,17.76375 0.0368,9.86581 4.5985,17.06056 12.63323,19.92533 3.34823,1.19381 3.50438,1.37653 1.209,1.41476 -1.44969,0.0241 -5.04201,-1.21313 -7.98292,-2.74948 z M 399.5,957.33245 c 4.49343,-0.97855 6.33449,-2.66967 7.52138,-6.90881 0.6687,-2.38835 0.92887,-5.48572 0.57816,-6.88305 C 407.24884,942.14327 407.12832,941 407.33172,941 c 1.05776,0 6.66828,2.2666 6.66828,2.69392 0,0.27404 -0.71894,2.97135 -1.59765,5.994 -1.35313,4.6546 -2.11348,5.71126 -4.96789,6.90391 -1.85362,0.77449 -4.84718,1.35597 -6.65234,1.29217 -1.96138,-0.0693 -2.47731,-0.29127 -1.28212,-0.55155 z M 341.06079,918.25 c -2.42151,-11.9625 -4.73397,-22.65 -5.13881,-23.75 -0.58029,-1.57673 -2.11869,0.87554 -7.26914,11.58732 -7.4816,15.56003 -8.38205,18.32911 -6.64206,20.42567 1.56239,1.88256 0.66069,1.8856 -2.96633,0.01 l -2.85623,-1.47702 2.46991,-2.77298 c 1.35845,-1.52515 5.79875,-9.69749 9.86734,-18.16077 5.8567,-12.18283 7.18985,-15.77563 6.40079,-17.25 C 334.37812,885.838 334.20005,885 334.53056,885 c 0.50751,0 4.44899,1.86179 5.2131,2.46245 0.13401,0.10534 2.04726,8.93189 4.25167,19.61454 2.2044,10.68266 4.27629,20.54801 4.60419,21.92301 0.50672,2.12485 1.50252,0.6993 6.63612,-9.5 7.0342,-13.97539 8.08017,-17.04139 6.696,-19.62773 -1.21877,-2.27729 -0.71245,-2.3274 3.17969,-0.3147 l 3.01201,1.55757 -2.38277,1.87429 c -1.34209,1.05568 -6.04372,9.5473 -10.76487,19.44243 C 350.36555,932.09434 346.33934,940 346.02856,940 c -0.31077,0 -2.54627,-9.7875 -4.96777,-21.75 z m -49.29683,-7.76235 -3.73605,-2.54078 2.89664,-2.72344 c 3.8218,-3.59327 19.82378,-29.24628 20.24574,-32.45623 l 0.32971,-2.50821 3.85597,2.45213 c 3.71011,2.35938 3.78066,2.50488 1.86504,3.84663 -2.70464,1.89441 -20.38325,30.00923 -21.12617,33.5976 L 295.5,913.02843 Z M 256.5,884.66463 c -1.65,-0.74994 -6.57092,-4.20299 -10.93538,-7.67343 -6.9029,-5.48892 -7.67275,-6.40706 -5.91682,-7.05661 2.56115,-0.94744 24.29191,-28.06242 25.19435,-31.43676 0.66769,-2.49659 0.75542,-2.45634 8.66618,3.97595 4.74896,3.8614 9.12702,8.43115 10.78973,11.26215 2.44125,4.15654 2.75689,5.60707 2.4752,11.37459 -0.59432,12.16814 -8.53814,20.09889 -20.66274,20.62875 -4.04803,0.17691 -7.77344,-0.23967 -9.61052,-1.07464 z m 11.00858,-1.52961 C 279.64145,877.62317 285.7729,861.11369 279.5994,850.5794 277.4075,846.8392 272.40219,842 270.72552,842 c -0.46716,0 -17.95094,21.33233 -23.04615,28.1191 -1.49439,1.9905 -2.45753,4.29543 -2.14032,5.12205 0.75414,1.96528 8.81897,7.7345 12.26497,8.77383 4.05487,1.22296 5.33005,1.10733 9.70456,-0.87996 z M 212,843.05226 c -1.925,-1.02264 -6.875,-5.38302 -11,-9.68974 -6.45582,-6.74022 -7.20351,-7.87493 -5.3704,-8.15024 C 198.66841,824.75591 226,799.30353 226,796.93004 c 0,-2.81011 13.84039,12.45491 16.26765,17.94212 6.25153,14.13262 -4.82079,30.16678 -20.76765,30.07426 -3.86952,-0.0224 -7.24278,-0.69503 -9.5,-1.89416 z m 12.9024,-2.00247 c 5.46622,-2.78866 12.56361,-11.07092 14.05657,-16.40324 0.74292,-2.65346 0.96672,-6.12694 0.55266,-8.57773 -0.70223,-4.15644 -6.01874,-13.13387 -8.18068,-13.81383 C 229.66879,801.73221 201,828.77211 201,830.86261 c 0,2.06472 6.28037,8.38836 10.5,10.57234 4.05551,2.09904 8.80026,1.96268 13.4024,-0.38516 z m -54.29824,-46.24824 -8.49054,-12.19845 3.19319,-1.13008 c 4.13886,-1.46476 29.03487,-18.82065 31.50908,-21.96609 l 1.89978,-2.41518 8.09216,11.68064 c 7.69926,11.1135 8.01017,11.77124 6.40336,13.54675 -0.92885,1.02636 -2.51541,2.30849 -3.5257,2.84918 -1.61805,0.86595 -1.70873,0.74362 -0.76118,-1.02688 2.08848,-3.90238 1.22827,-8.63113 -2.63809,-14.50213 C 204.24364,766.53769 202.18452,764 201.7104,764 c -1.9595,0 -15.59169,10.38468 -14.97423,11.40702 3.81067,6.30945 7.84628,10.68672 10.48235,11.3698 l 3.03846,0.78734 -3.91267,2.58929 -3.91267,2.58928 0.36651,-3.13946 c 0.31682,-2.71383 -2.53422,-8.32505 -7.31087,-14.38873 -0.48753,-0.6189 -16.67561,11.11266 -17.1924,12.45939 -0.67203,1.75129 5.94433,11.59756 9.24751,13.76189 1.31298,0.8603 3.86558,1.57419 5.67243,1.58642 L 186.5,803.04447 184,805 c -1.375,1.07554 -3.04119,1.96553 -3.70265,1.97776 -0.66145,0.0122 -5.02339,-5.46706 -9.69319,-12.17621 z M 142,748.08216 c 0,-1.0464 2.6757,-4.24317 12.46116,-14.88782 l 3.03884,-3.30567 -11.75,0.70242 c -8.68457,0.51917 -11.75,0.39818 -11.75,-0.46378 0,-0.64141 6.1875,-7.71472 13.75,-15.71846 7.5625,-8.00375 14.50523,-15.91531 15.4283,-17.58126 l 1.6783,-3.029 2.09202,4.1007 c 1.63538,3.2056 1.78432,4.10071 0.68235,4.10071 -1.43664,0 -27.06866,26.89564 -26.33306,27.63124 0.22186,0.22187 4.18309,0.10235 8.80274,-0.26559 l 8.39935,-0.66897 6,-6.92522 c 3.3,-3.80886 6.50848,-8.10357 7.12996,-9.54379 l 1.12996,-2.61858 2.12004,4.15562 c 2.36714,4.63996 2.60117,5.65068 1.09253,4.71828 -0.95539,-0.59046 -11.26222,9.56062 -10.49068,10.33215 0.89474,0.89474 11.78805,-1.22785 13.11586,-2.55566 1.65997,-1.65998 1.66429,-1.6581 3.26688,1.42478 1.6183,3.1131 1.42456,3.54084 -1.01292,2.23633 -1.39797,-0.74817 -4.6289,-0.92718 -9.25,-0.51252 l -7.10163,0.63726 -7.69803,8.22733 -7.69802,8.22734 3.19802,0.61836 3.19803,0.61836 -3.625,0.13164 c -1.99375,0.0724 -5.03125,0.41289 -6.75,0.75664 -2.07287,0.41457 -3.125,0.23181 -3.125,-0.54284 z m 15.75,-1.78789 c 1.2375,-0.23836 3.2625,-0.23836 4.5,0 1.2375,0.23835 0.225,0.43337 -2.25,0.43337 -2.475,0 -3.4875,-0.19502 -2.25,-0.43337 z m 9,-1 c 1.2375,-0.23836 3.2625,-0.23836 4.5,0 1.2375,0.23835 0.225,0.43337 -2.25,0.43337 -2.475,0 -3.4875,-0.19502 -2.25,-0.43337 z m 21.9061,0.0285 c -0.37247,-0.37248 -3.93497,-0.64846 -7.91666,-0.6133 l -7.23944,0.0639 6,-0.8784 c 3.6005,-0.52712 6.48729,-1.54079 7.21848,-2.53471 1.08706,-1.47769 1.33273,-1.35578 2.27797,1.13039 1.06706,2.80657 0.91333,4.08578 -0.34035,2.8321 z M 1025.6734,507 c -0.3153,-1.375 -0.853,-6.1 -1.1949,-10.5 -0.9212,-11.85434 -4.2042,-34.75168 -7.0602,-49.24037 C 988.59284,301.02415 898.32594,174.7519 769.57587,100.55866 748.43408,88.375535 721.1837,75.657714 693.5,65.053864 598.11157,28.516675 485.15622,22.649721 385.68594,49.065858 369.48789,53.367543 369.16579,53.431187 370.55,52.05661 c 1.37428,-1.364718 24.97187,-7.601452 41.63442,-11.003784 34.90034,-7.126314 64.11924,-10.054765 100.25296,-10.047808 114.27605,0.022 219.67785,35.054402 310.78765,103.296512 21.23059,15.90191 35.61962,28.37945 54.33644,47.11819 41.35728,41.40572 71.73843,83.9394 97.91433,137.08028 24.3738,49.48238 38.434,94.2039 47.002,149.5 2.8083,18.12407 4.9429,38.29366 4.2523,40.17964 -0.2779,0.75899 -0.7272,0.25744 -1.0567,-1.17964 z M 911.62405,430.52306 C 909.63082,422.56074 908,415.88868 908,415.69625 c 0,-0.19242 1.2375,-0.17162 2.75,0.0462 3.76817,0.54274 36.20272,-7.3897 38.41996,-9.39628 2.17795,-1.97102 1.85096,-2.7374 5.80641,13.6087 1.65762,6.85019 2.67855,12.75127 2.26874,13.11352 -0.40981,0.36225 -2.29155,1.1759 -4.18164,1.80812 l -3.43654,1.14948 2.11241,-2.263 c 1.16182,-1.24466 2.42643,-3.52794 2.81024,-5.07397 0.6542,-2.63518 -0.98619,-13.15942 -2.41029,-15.46366 -0.72812,-1.17812 -38.42286,7.65819 -40.18468,9.42001 -0.73704,0.73704 -0.53407,3.12243 0.67676,7.95369 1.81003,7.22211 5.51736,12.33562 9.04171,12.47121 1.65074,0.0635 1.63405,0.15316 -0.17308,0.92971 -1.1,0.47269 -2.95668,0.89106 -4.12595,0.92971 -1.91401,0.0633 -2.48726,-1.373 -5.75,-14.40665 z m 22.40035,3.43134 c 0.7456,-1.39315 0.96961,-4.1593 0.59479,-7.34462 l -0.60126,-5.10978 1.74103,4.98395 c 1.0846,3.10481 2.61422,5.41419 4.05692,6.12506 l 2.31588,1.14111 -2.81588,0.67243 c -1.54873,0.36983 -3.642,0.91864 -4.65171,1.21957 -1.62171,0.48332 -1.69633,0.28648 -0.63977,-1.68772 z m -0.94545,-14.53773 c 0.048,-1.16495 0.28494,-1.4019 0.60416,-0.60417 0.28887,0.72187 0.25335,1.58438 -0.0789,1.91667 -0.33229,0.33229 -0.56864,-0.25834 -0.52522,-1.3125 z M 901.54984,391.47645 C 893.36073,380.73998 891.27333,368.28781 896.24493,359.83058 899.72518,353.91031 908.70227,349 916.04553,349 c 10.44048,0 19.96321,8.34248 23.53073,20.61434 2.20895,7.59852 1.65774,10.45389 -2.33071,12.07349 l -3.25446,1.32154 2.00446,-3.73988 c 4.51226,-8.41891 0.59994,-20.28804 -8.19589,-24.8645 -9.15504,-4.76337 -25.79661,2.59877 -30.41199,13.45409 -2.03907,4.79588 -1.39011,13.31411 1.28999,16.93239 2.92533,3.94936 8.16319,7.19923 11.72022,7.27192 2.56483,0.0524 2.75572,0.19985 1.10212,0.85129 -5.98539,2.35795 -7.18717,2.18424 -9.95016,-1.43823 z M 877,339.59031 c 0,-0.35185 4.08223,-10.57137 9.07162,-22.71006 4.98939,-12.13869 8.92689,-22.21129 8.75,-22.38355 -0.38985,-0.37964 -25.90498,14.43825 -28.19761,16.37574 -0.8932,0.75485 -1.63402,2.32985 -1.64625,3.5 -0.0214,2.04609 -0.0971,2.03183 -1.97776,-0.37244 -2.53766,-3.24422 -2.49056,-3.99888 0.25,-4.00512 1.2375,-0.003 9.43858,-4.20288 18.22462,-9.33349 12.18168,-7.11348 16.11547,-9.90214 16.56779,-11.74488 l 0.59316,-2.41651 1.55077,3 c 1.51758,2.93579 1.37087,3.43619 -6.85457,23.37988 -4.62294,11.20894 -8.26693,20.51829 -8.09777,20.68745 0.49874,0.49874 23.06405,-12.63066 25.46273,-14.81523 1.20821,-1.10036 2.34608,-2.95722 2.52861,-4.12637 0.29593,-1.89544 0.51837,-1.77902 2.05327,1.07461 2.11355,3.92942 2.13717,4.39644 0.1845,3.64713 -1.251,-0.48005 -25.39302,12.47694 -36.21311,19.43554 -1.2375,0.79585 -2.25,1.15914 -2.25,0.8073 z m -28.35701,-46.99172 c -2.2874,-2.99895 -2.38494,-3.43647 -0.86125,-3.86354 0.94504,-0.26489 3.27552,-3.42752 5.17885,-7.02806 l 3.46059,-6.54643 -4.87823,-6.33028 c -2.68302,-3.48165 -5.17284,-6.67783 -5.53293,-7.10262 -0.36008,-0.42479 -3.68357,0.16318 -7.38552,1.3066 -4.77241,1.47405 -6.9559,2.68738 -7.50438,4.17006 -0.73527,1.98763 -0.88604,1.93315 -3.04627,-1.10061 l -2.27271,-3.19172 2.51453,0.6311 c 2.97378,0.74637 38.27158,-8.96002 40.85114,-11.23348 1.29521,-1.14151 2.13125,-1.22046 3.75,-0.35413 1.86476,0.99799 1.93916,1.34712 0.70952,3.3297 C 868.25765,263.94128 853,292.09181 853,293.34098 c 0,2.93076 -1.78769,2.62616 -4.35701,-0.74239 z m 14.34107,-28.74299 c 2.63739,-4.59558 4.66475,-8.49826 4.50524,-8.67262 -0.1595,-0.17436 -4.84154,0.94616 -10.40453,2.49004 -6.43813,1.78675 -9.95189,3.23089 -9.66707,3.97311 1.13825,2.96622 9.14265,12.19352 9.91099,11.42518 0.47306,-0.47306 3.01798,-4.62013 5.65537,-9.21571 z M 806.38432,241.14258 C 802.45728,239.30627 788,226.60187 788,224.98728 c 0,-0.42376 1.01478,-1.02516 2.25507,-1.33645 C 793.12053,222.93165 818,196.5931 818,194.27878 c 0,-2.43653 14.59307,12.14784 17.23149,17.22122 1.33217,2.56161 2.10983,6.01283 2.16259,9.59745 0.22064,14.99046 -17.42555,26.39719 -31.00976,20.04513 z m 12.31015,-2.23672 c 4.78731,-2.3175 10.445,-8.60206 12.78432,-14.20084 3.19664,-7.65066 0.97246,-17.02433 -5.51411,-23.23886 l -3.04041,-2.91289 -13.91074,14.47336 c -7.65091,7.96036 -13.93387,15.28381 -13.96214,16.27435 -0.0613,2.14808 6.22866,8.31735 10.44861,10.24813 4.27486,1.9559 8.22293,1.76343 13.19447,-0.64325 z M 769.6403,205.8327 c -0.35216,-3.36934 -0.6929,-11.57257 -0.75718,-18.22939 -0.0643,-6.65682 -0.40179,-14.97775 -0.75,-18.49096 l -0.63312,-6.38766 -9.44387,13.28998 c -7.55708,10.63477 -9.42516,13.94999 -9.35023,16.59349 l 0.0936,3.30351 -2.93571,-2.17047 c -2.69801,-1.99472 -2.77992,-2.2281 -1.01163,-2.88223 1.67872,-0.621 20.04043,-25.0528 23.03835,-30.65446 0.60625,-1.13279 0.78876,-2.87972 0.40557,-3.88207 -0.65631,-1.71675 -0.55462,-1.72875 1.75358,-0.20694 2.84185,1.87364 3.57554,7.04698 3.88372,27.3845 0.10001,6.6 0.49341,13.71954 0.87421,15.82119 l 0.69237,3.8212 7.60935,-10.8212 c 9.44641,-13.43365 10.2135,-14.89873 9.43167,-18.01376 l -0.62903,-2.50629 2.93551,2.09027 2.93552,2.09028 -3.64151,3.75915 c -2.00283,2.06754 -8.19087,10.16239 -13.75121,17.98855 l -10.10969,14.2294 z M 717.75,176.93791 c -8.77464,-4.48595 -10.46517,-6.10999 -2.5,-2.40167 6.02282,2.80402 9.54159,3.08863 12.30887,0.99556 3.12363,-2.36259 3.51582,-1.77272 1.30863,1.9682 -1.13578,1.925 -2.3581,3.4775 -2.71628,3.45001 -0.35817,-0.0275 -4.13872,-1.83294 -8.40122,-4.0121 z m -14.02105,-7.51433 -4.77104,-2.48331 2.45998,-2.22013 c 3.49073,-3.15038 18.8747,-32.49329 18.26268,-34.83365 -0.27133,-1.03757 -0.13579,-1.88649 0.3012,-1.88649 0.437,0 6.41196,2.98235 13.27769,6.62745 l 12.48316,6.62745 -1.62131,3.82903 -1.62131,3.82904 -0.80745,-3.94941 c -0.86665,-4.23899 -3.78949,-7.02658 -11.34468,-10.81973 -4.87174,-2.44591 -4.61339,-2.64729 -9.73641,7.58963 l -3.61995,7.23347 6.15635,3.10771 c 4.00712,2.02279 7.15056,2.96179 9.00424,2.68973 1.56635,-0.22989 2.84622,-0.15842 2.84416,0.15882 -0.006,0.9658 -3.92717,7.07681 -4.54058,7.07681 -0.31554,0 -0.34092,-0.37666 -0.0564,-0.83703 0.94907,-1.53562 -2.48468,-5.17115 -7.72018,-8.17385 -2.8485,-1.63369 -5.51208,-2.97457 -5.91906,-2.97974 -0.40698,-0.005 -2.82024,4.13268 -5.36279,9.1952 -3.76361,7.49381 -4.41442,9.53828 -3.50156,11 0.61669,0.98748 1.00494,1.77447 0.86278,1.74886 -0.14216,-0.0256 -2.40544,-1.16405 -5.02952,-2.52986 z M 669,154.27747 c -0.825,-0.31055 -2.57911,-0.96421 -3.89802,-1.45258 -2.15706,-0.79872 -2.23224,-1.01037 -0.74819,-2.10641 0.9074,-0.67017 4.81202,-9.54 8.67693,-19.71075 6.48147,-17.05636 6.89356,-18.58993 5.30707,-19.75 -2.42785,-1.77529 -9.80703,-1.60219 -11.35785,0.26644 -1.95758,2.35874 -2.29996,0.99537 -0.58357,-2.32377 l 1.54384,-2.98546 15.0299,5.63393 C 691.23655,114.94754 698,117.79488 698,118.1763 c 0,0.38143 -0.50868,1.9603 -1.1304,3.5086 l -1.1304,2.8151 -0.89684,-3.2448 c -0.96032,-3.47446 -3.99537,-6.03078 -7.69201,-6.47873 -2.09305,-0.25363 -2.86007,1.24545 -9.2865,18.14962 -3.85276,10.13435 -6.79038,19.24685 -6.52805,20.25 0.49584,1.89612 0.17606,2.0469 -2.3358,1.10138 z M 619.21598,138.8724 c -2.92648,-0.84409 -3.11989,-1.11135 -1.77643,-2.45481 1.67857,-1.67857 1.93433,-2.55076 7.1064,-24.23456 2.00939,-8.42434 3.42074,-15.549675 3.13633,-15.834083 -0.28441,-0.284408 -2.38332,-0.767417 -4.66425,-1.073354 -3.24293,-0.434968 -4.77023,-0.09558 -7.00489,1.556575 l -2.85775,2.112824 0.89145,-3.108307 c 0.4903,-1.709569 1.02172,-3.23858 1.18094,-3.397801 0.4775,-0.477493 30.20613,6.724275 31.07758,7.528548 0.44294,0.408808 0.49009,1.999358 0.10478,3.534578 l -0.70057,2.7913 -1.38014,-2.63409 C 642.85617,100.84741 638.28973,98 635.25362,98 c -1.56832,0 -2.56427,2.93865 -6.62717,19.55414 -3.79584,15.52334 -4.53412,19.85219 -3.58152,21 0.97569,1.17564 0.85001,1.429 -0.67249,1.35567 -1.02984,-0.0496 -3.35025,-0.51644 -5.15646,-1.03741 z m -33.54793,-6.60575 c -2.92844,-0.30351 -3.69456,-0.75518 -3.24925,-1.91564 0.32048,-0.83517 -0.387,-4.85581 -1.57219,-8.93475 L 578.69173,114 l -4.59587,-0.17471 -4.59586,-0.1747 4.25,-0.3828 c 2.3375,-0.21053 4.25,-0.67154 4.25,-1.02447 C 578,110.35851 572.52004,93 571.92502,93 c -0.6832,0 -9.11454,15.31598 -9.73602,17.686 -0.18773,0.71592 1.19952,1.34291 3.5,1.5819 3.71247,0.38566 3.69295,0.40024 -0.75513,0.564 -4.54154,0.16719 -4.58135,0.19993 -7.39041,6.07717 -1.72899,3.61746 -2.60219,6.75833 -2.25162,8.09892 0.4874,1.86381 0.24776,2.1027 -1.60959,1.60458 -1.20024,-0.32189 -2.76984,-0.59141 -3.48801,-0.59892 -0.71817,-0.008 -0.15924,-1.02615 1.24207,-2.26365 C 554.67211,122.89245 571,92.628557 571,89.488517 c 0,-2.135659 3.33839,-4.483463 4.59224,-3.229609 0.24284,0.242837 3.08682,9.516012 6.31995,20.607062 3.23314,11.09104 6.60054,21.26761 7.48312,22.6146 1.76342,2.69132 1.99704,3.60737 0.85469,3.35133 -0.4125,-0.0925 -2.47438,-0.34682 -4.58195,-0.56525 z"
       id="path1" />
</svg>
